<!DOCTYPE svg PUBLIC "-//W3C//DTD SVG 1.1//EN" "http://www.w3.org/Graphics/SVG/1.1/DTD/svg11.dtd" [
	<!ENTITY ns_extend "http://ns.adobe.com/Extensibility/1.0/">
	<!ENTITY ns_ai "http://ns.adobe.com/AdobeIllustrator/10.0/">
	<!ENTITY ns_graphs "http://ns.adobe.com/Graphs/1.0/">
	<!ENTITY ns_vars "http://ns.adobe.com/Variables/1.0/">
	<!ENTITY ns_imrep "http://ns.adobe.com/ImageReplacement/1.0/">
	<!ENTITY ns_sfw "http://ns.adobe.com/SaveForWeb/1.0/">
	<!ENTITY ns_custom "http://ns.adobe.com/GenericCustomNamespace/1.0/">
	<!ENTITY ns_adobe_xpath "http://ns.adobe.com/XPath/1.0/">
]>
<svg version="1.1" id="Слой_1" xmlns:x="&ns_extend;" xmlns:i="&ns_ai;" xmlns:graph="&ns_graphs;"
	 xmlns="http://www.w3.org/2000/svg" xmlns:xlink="http://www.w3.org/1999/xlink" x="0px" y="0px" viewBox="0 0 45.5 27.6"
	 style="enable-background:new 0 0 45.5 27.6;" xml:space="preserve">
<style type="text/css">
	.st0{fill:#2B2D2E;}
	.st1{fill:#FF6873;}
	.st2{fill:#BDD4DE;}
</style>
<switch>
	<g i:extraneous="self">
		<path class="st0" d="M27.1,1.2h9.8v26.4h-9.8L27.1,1.2z M0,4.9h9.4V23H0V4.9z"/>
		<path class="st0" d="M18,18.5H0v4.1c0,2.7,2.2,4.9,4.9,4.9H18V18.5z M45.5,9.8H0V5c0-2.7,2.2-5,5-5h35.5c2.8,0,5,2.2,5,5V9.8z"/>
		<path class="st0" d="M45.5,9.8H18.9V0h22.5c2.3,0,4.1,1.8,4.1,4.1C45.5,4.1,45.5,9.8,45.5,9.8z"/>
		<path class="st1" d="M18,18.6l-8.9,8.9H18V18.6z"/>
		<path class="st2" d="M36.9,18.5l-9.8,9v0.1h9.6l0.2-0.1C36.9,27.5,36.9,18.5,36.9,18.5z"/>
		<path class="st2" d="M36.4,27.1h0.5v0.5h-0.5V27.1z"/>
	</g>
</switch>
</svg>